<?xml version="1.0" ?><!DOCTYPE svg  PUBLIC '-//W3C//DTD SVG 1.1//EN'  'http://www.w3.org/Graphics/SVG/1.1/DTD/svg11.dtd'><svg height="20px" id="Layer_1" style="enable-background:new 0 0 32 32;" version="1.1" viewBox="0 0 32 32" width="20px" xml:space="preserve" xmlns="http://www.w3.org/2000/svg" xmlns:xlink="http://www.w3.org/1999/xlink"><path fill="#ffffff" d="M28,2h-4c0-1.104-0.896-2-2-2s-2,0.896-2,2h-8c0-1.104-0.896-2-2-2S8,0.896,8,2H4C2.9,2,2,2.9,2,4v26c0,1.1,0.9,2,2,2h24  c1.1,0,2-0.9,2-2V4C30,2.9,29.1,2,28,2z M8,6c0,1.104,0.896,2,2,2s2-0.896,2-2h8c0,1.104,0.896,2,2,2s2-0.896,2-2h2v4H6V6H8z M6,28  V14h20v14H6z"/></svg>